<svg xmlns="http://www.w3.org/2000/svg" enable-background="new 0 0 512 512" viewBox="0 0 512 512" id="menu"><path fill="#6e7889" d="M496,105.41v301.18c0,49.38-40.03,89.41-89.41,89.41H105.41C56.03,496,16,455.97,16,406.59V105.41
				C16,56.03,56.03,16,105.41,16h301.18C455.97,16,496,56.03,496,105.41z"></path><path fill="#fde44d" d="M406 137.2v57.6c0 17.23-13.97 31.2-31.2 31.2h-57.6c-17.23 0-31.2-13.97-31.2-31.2v-57.6c0-17.23 13.97-31.2 31.2-31.2h57.6C392.03 106 406 119.97 406 137.2zM226 137.2v57.6c0 17.23-13.97 31.2-31.2 31.2h-57.6c-17.23 0-31.2-13.97-31.2-31.2v-57.6c0-17.23 13.97-31.2 31.2-31.2h57.6C212.03 106 226 119.97 226 137.2zM406 317.2v57.6c0 17.23-13.97 31.2-31.2 31.2h-57.6c-17.23 0-31.2-13.97-31.2-31.2v-57.6c0-17.23 13.97-31.2 31.2-31.2h57.6C392.03 286 406 299.97 406 317.2zM226 317.2v57.6c0 17.23-13.97 31.2-31.2 31.2h-57.6c-17.23 0-31.2-13.97-31.2-31.2v-57.6c0-17.23 13.97-31.2 31.2-31.2h57.6C212.03 286 226 299.97 226 317.2z"></path><path fill="#c2ced4" d="M406.592,511H105.408C47.837,511,1,464.163,1,406.592V105.408C1,47.837,47.837,1,105.408,1
				h301.184C464.163,1,511,47.837,511,105.408v301.184C511,464.163,464.163,511,406.592,511z M105.408,31
				C64.38,31,31,64.38,31,105.408v301.184C31,447.62,64.38,481,105.408,481h301.184C447.62,481,481,447.62,481,406.592V105.408
				C481,64.38,447.62,31,406.592,31H105.408z"></path></svg>